<svg id="图层_1" data-name="图层 1" xmlns="http://www.w3.org/2000/svg" viewBox="0 0 200 200"><title>xitong</title><path d="M70.44,41.11h61.07V25.89H70.44Zm91.5,0h15.21a7.82,7.82,0,0,1,7.61,8V166.94a7.83,7.83,0,0,1-7.61,8H24.8a7.83,7.83,0,0,1-7.61-8V49.13a7.82,7.82,0,0,1,7.61-8H40.42V25.89H24.8a23.17,23.17,0,0,0-23,23.24V166.94a23.12,23.12,0,0,0,22.82,23.23H177a23,23,0,0,0,22.82-23.23V49.13a22.83,22.83,0,0,0-22.62-23.24H161.94ZM47.62,17.46a7.61,7.61,0,0,1,15.22,0V49.54a7.61,7.61,0,0,1-15.22,0Zm91.29,0a7.61,7.61,0,0,1,15.21,0V49.54a7.61,7.61,0,0,1-15.21,0ZM47.62,88.19a7.73,7.73,0,0,1,7.61-7.61h91.29a7.46,7.46,0,0,1,7.6,7.61,7.72,7.72,0,0,1-7.6,7.61H55.23a7.46,7.46,0,0,1-7.61-7.61Zm0,39.27a7.73,7.73,0,0,1,7.61-7.61h91.29a7.46,7.46,0,0,1,7.6,7.61,7.72,7.72,0,0,1-7.6,7.61H55.23a7.46,7.46,0,0,1-7.61-7.61Zm0,0"/></svg>