<svg id="图层_1" data-name="图层 1" xmlns="http://www.w3.org/2000/svg" viewBox="0 0 200 200"><title>xitong</title><path d="M80.56,161.46a12.11,12.11,0,0,0,7.09,2.79h4.73c2.36,0,5.2-1.4,7.09-2.79l54.4-53.5a4.49,4.49,0,0,0,0-6.4l-9.09-8.94a4.65,4.65,0,0,0-6.51,0L94.22,136.41a4.65,4.65,0,0,1-6.51,0L72,121a4.67,4.67,0,0,0-6.49,0L56,130.32a4.21,4.21,0,0,0,0,5.58Zm0,0"/><path d="M132.29,1.45c-11.75,1.76-19.76,13-19.76,24.91V45.9c0,11.88,8,23.15,19.76,24.91a23.36,23.36,0,0,0,26.83-23V24.48A23.36,23.36,0,0,0,132.29,1.45Zm15.18,46.33a11.65,11.65,0,0,1-23.29,0V24.48a11.65,11.65,0,1,1,23.29,0Z"/><path d="M62.41,1.45c-11.75,1.76-19.76,13-19.76,24.91V45.9c0,11.88,8,23.15,19.76,24.91a23.36,23.36,0,0,0,26.83-23V24.48A23.36,23.36,0,0,0,62.41,1.45ZM77.59,47.78a11.65,11.65,0,0,1-23.29,0V24.48a11.65,11.65,0,1,1,23.29,0Z"/><path d="M77.59,36.13V47.87A11.55,11.55,0,0,1,66,59.42,11.73,11.73,0,0,1,54.3,47.68V36.13H31A11.64,11.64,0,0,0,19.36,47.78V187.54A11.65,11.65,0,0,0,31,199.19H170.77a11.66,11.66,0,0,0,11.65-11.65V47.78a11.65,11.65,0,0,0-11.65-11.65Zm93.18,139.18a12.26,12.26,0,0,1-12.23,12.23H43.23A12.27,12.27,0,0,1,31,175.31v-92A12.27,12.27,0,0,1,43.23,71.07H158.54A12.26,12.26,0,0,1,170.77,83.3ZM146.53,59.42H125.12a.94.94,0,0,1-.94-.94V36.13h23.29V58.48A.94.94,0,0,1,146.53,59.42Z"/></svg>