<?xml version="1.0" standalone="no"?><!DOCTYPE svg PUBLIC "-//W3C//DTD SVG 1.1//EN" "http://www.w3.org/Graphics/SVG/1.1/DTD/svg11.dtd"><svg t="1563347781526" class="icon" viewBox="0 0 1024 1024" version="1.1" xmlns="http://www.w3.org/2000/svg" p-id="6737" xmlns:xlink="http://www.w3.org/1999/xlink" width="64" height="64"><defs><style type="text/css"></style></defs><path d="M512 118.25c-217.441 0-393.75 176.309-393.75 393.75S294.559 905.75 512 905.75 905.75 729.441 905.75 512 729.441 118.25 512 118.25z m0 710.156c-174.727 0-316.406-141.68-316.406-316.406S337.274 195.594 512 195.594 828.406 337.274 828.406 512 686.726 828.406 512 828.406z m230.273-355.078H550.672V281.727c0-21.358-17.315-38.672-38.672-38.672s-38.672 17.314-38.672 38.672V512c0 21.357 17.315 38.672 38.672 38.672h230.273c21.358 0 38.672-17.315 38.672-38.672 0-21.357-17.314-38.672-38.672-38.672z" p-id="6738"></path></svg>