<svg id="图层_1" data-name="图层 1" xmlns="http://www.w3.org/2000/svg" xmlns:xlink="http://www.w3.org/1999/xlink" viewBox="0 0 200 200"><defs><style>.cls-1{fill:none;}.cls-2{clip-path:url(#clip-path);}</style><clipPath id="clip-path"><rect class="cls-1" x="0.96" y="43.81" width="198" height="119.33"/></clipPath></defs><title>xitong</title><g class="cls-2"><path d="M99.81,83.59a20.54,20.54,0,0,0-14,5.73,19.83,19.83,0,0,0-5.73,14,20.53,20.53,0,0,0,5.73,13.94,19.83,19.83,0,0,0,14,5.73,20.53,20.53,0,0,0,13.94-5.73,19.82,19.82,0,0,0,5.73-13.94,20.54,20.54,0,0,0-5.73-14,20,20,0,0,0-13.94-5.73ZM100,43.93c-59.49,0-99,59.49-99,59.49s39.66,59.49,99,59.49,99-59.49,99-59.49-39.51-59.49-99-59.49Zm0,98.69a39.36,39.36,0,1,1,39.35-39.35A39.4,39.4,0,0,1,100,142.62Zm0,0"/></g></svg>