<?xml version="1.0" standalone="no"?><!DOCTYPE svg PUBLIC "-//W3C//DTD SVG 1.1//EN" "http://www.w3.org/Graphics/SVG/1.1/DTD/svg11.dtd"><svg t="1563181957781" class="icon" viewBox="0 0 1024 1024" version="1.1" xmlns="http://www.w3.org/2000/svg" p-id="9907" xmlns:xlink="http://www.w3.org/1999/xlink" width="64" height="64"><defs><style type="text/css"></style></defs><path d="M960 448c-35.34 0-64 28.66-64 64 0 44.352-7.475 87.782-22.22 129.088C819.365 793.562 673.983 896 512 896c-211.738 0-384-172.262-384-384s172.262-384 384-384c93.837 0 182.662 33.587 252.666 94.925l-81.55 100.435L1024 354.97 922.1 29.03l-76.743 94.516C752.563 43.706 635.552 0 512 0 229.683 0 0 229.683 0 512s229.683 512 512 512c215.949 0 409.786-136.595 482.33-339.885A510.605 510.605 0 0 0 1024 512c0-35.34-28.66-64-64-64z" p-id="9908"></path></svg>