<?xml version="1.0" standalone="no"?><!DOCTYPE svg PUBLIC "-//W3C//DTD SVG 1.1//EN" "http://www.w3.org/Graphics/SVG/1.1/DTD/svg11.dtd"><svg t="1563850854196" class="icon" viewBox="0 0 1024 1024" version="1.1" xmlns="http://www.w3.org/2000/svg" p-id="5280" xmlns:xlink="http://www.w3.org/1999/xlink" width="64" height="64"><defs><style type="text/css"></style></defs><path d="M505.976471 0C226.532894 0 0 226.532894 0 505.976471s226.532894 505.976471 505.976471 505.97647c279.431529 0 505.976471-226.532894 505.97647-505.97647S785.408 0 505.976471 0z m191.873505 536.708518l-220.653929 205.281882c-17.239341 16.974306-33.117365 16.974306-50.356706 0s-17.239341-32.430682 0-49.417035L616.279341 505.976471 426.839341 319.379576c-17.239341-16.974306-17.239341-32.418635 0-49.417035 17.239341-16.974306 33.117365-16.974306 50.356706 0l220.653929 205.281883a42.959812 42.959812 0 0 1 0 61.464094z" p-id="5281"></path></svg>