<?xml version="1.0" standalone="no"?><!DOCTYPE svg PUBLIC "-//W3C//DTD SVG 1.1//EN" "http://www.w3.org/Graphics/SVG/1.1/DTD/svg11.dtd"><svg t="1563181912441" class="icon" viewBox="0 0 1024 1024" version="1.1" xmlns="http://www.w3.org/2000/svg" p-id="9065" xmlns:xlink="http://www.w3.org/1999/xlink" width="64" height="64"><defs><style type="text/css"></style></defs><path d="M512 1024C229.228 1024 0 794.772 0 512S229.228 0 512 0s512 229.228 512 512-229.228 512-512 512z m0-950.856C269.624 73.144 73.144 269.63 73.144 512S269.624 950.856 512 950.856 950.856 754.37 950.856 512 754.376 73.144 512 73.144z m-12.928 637.24c-21.422 21.423-56.156 21.423-77.578 0L240.476 529.368c-21.422-21.422-21.422-56.156 0-77.578 21.422-21.422 56.156-21.422 77.578 0l142.229 142.228L705.95 348.35c21.422-21.422 56.156-21.422 77.578 0 21.422 21.423 21.422 56.157 0 77.579L499.072 710.385z" p-id="9066"></path></svg>