<svg id="图层_1" data-name="图层 1" xmlns="http://www.w3.org/2000/svg" xmlns:xlink="http://www.w3.org/1999/xlink" viewBox="0 0 200 200"><defs><style>.cls-1{fill:none;}.cls-2{clip-path:url(#clip-path);}</style><clipPath id="clip-path"><rect class="cls-1" x="8.56" y="1.44" width="184.8" height="198"/></clipPath></defs><title>xitong</title><g class="cls-2"><path d="M184,37.87H142.07C141.41,18,124.4,1.77,102.8,1.77S64.19,18,63.53,37.87H18.38c-5.24,0-9.82,4.36-9.82,9.34s4.58,9.34,9.82,9.34H34.74V163c0,19.92,0,36.1,27.48,36.1h77.23c27.49,0,27.49-16.18,27.49-36.1V57.17H183.3c5.23,0,9.81-4.36,9.81-9.34a9,9,0,0,0-9.16-10Zm-81.15-18c11.13,0,19.63,8.09,20.29,18H82.51c.66-10,9.16-18,20.29-18Zm36,161.84H63.53c-10.47,0-11.12-7.47-11.12-18.67V57.17h97.51V163.61c0,10.58.66,18-11.12,18Zm0,0"/></g><path d="M83.82,83.31c-4.58,0-8.51,4.36-8.51,10v56c0,5.61,3.93,10,8.51,10s8.51-4.35,8.51-10v-56c0-5.6-3.93-10-8.51-10Zm34.69,0c-4.58,0-8.51,4.36-8.51,10v56c0,5.61,3.93,10,8.51,10s8.5-4.35,8.5-10v-56c0-5.6-3.92-10-8.5-10Zm0,0"/></svg>