<svg id="图层_1" data-name="图层 1" xmlns="http://www.w3.org/2000/svg" viewBox="0 0 200 200"><defs><style>.cls-1{fill:none;}</style></defs><title>xitong</title><path d="M164.15,26.73a32.92,32.92,0,0,0-63.77,0H.57V43.2h99.81a32.92,32.92,0,0,0,63.77,0h34V26.73Zm-31.88,24.7A16.47,16.47,0,1,1,148.73,35,16.47,16.47,0,0,1,132.27,51.43Z"/><path d="M98.3,92.58a32.92,32.92,0,0,0-63.77,0H.57V109h34a32.92,32.92,0,0,0,63.77,0h99.81V92.58ZM66.42,117.27a16.46,16.46,0,1,1,16.46-16.46A16.46,16.46,0,0,1,66.42,117.27Z"/><path d="M164.15,158.43a32.92,32.92,0,0,0-63.77,0H.57v16.46h99.81a32.92,32.92,0,0,0,63.77,0h34V158.43Zm-31.88,24.69a16.46,16.46,0,1,1,16.46-16.46A16.46,16.46,0,0,1,132.27,183.12Z"/><polyline class="cls-1" points="0.61 1.92 198.3 1.92 198.3 199.92 0.61 199.92"/></svg>