<svg id="图层_2" data-name="图层 2" xmlns="http://www.w3.org/2000/svg" viewBox="0 0 30 30"><path d="M20.35,2.69a7,7,0,0,0-9.91,0,7.06,7.06,0,0,0,.17,9.91L15,17a.6.6,0,0,0,.86,0l4.36-4.36A7.07,7.07,0,0,0,20.35,2.69Zm-3.2,6.63a2.48,2.48,0,1,1,0-3.51A2.48,2.48,0,0,1,17.15,9.32Z"/><path d="M13.89,18.55a2.12,2.12,0,0,0,3,0l5.21-5.41,2.08,0a2.65,2.65,0,0,1,2.76,1.73l2.91,8.26a2.43,2.43,0,0,1-1.53,3l-8.66,3.2a5.39,5.39,0,0,1-4.74-.5l-4.05-2.56a1.21,1.21,0,0,0-.89-.17L3.63,27.3A2.44,2.44,0,0,1,.79,24.11L4.41,15A2.69,2.69,0,0,1,6.94,13.3H8.81Z"/></svg>