<svg id="图层_1" data-name="图层 1" xmlns="http://www.w3.org/2000/svg" viewBox="0 0 200 200"><title>xitong</title><path d="M181.33,183H22.49a8.24,8.24,0,1,0,0,16.47H181.33a8.24,8.24,0,1,0,0-16.47Zm-8.62-5.62H28.46c-8.73,0-15.84-6.24-15.84-13.9v-29c0-7.66,7.11-13.89,15.84-13.89H70.34l5-35.45C59.87,77,50.26,62.17,50.26,46.42c0-24.81,23-45,51.37-45a55,55,0,0,1,36,12.9c9.94,8.55,15.39,20,15.39,32.09,0,15.79-9.64,30.62-25.17,38.7l5,35.39h39.9c8.73,0,15.83,6.23,15.83,13.89v29c0,7.66-7.1,13.9-15.84,13.9ZM27.58,162.27a3,3,0,0,0,.88.14H172.71a2.89,2.89,0,0,0,.88-.14V135.6a2.89,2.89,0,0,0-.88-.14H119.82l-8.29-58.72,9.38-4.89C131.48,66.36,138,56.62,138,46.41c0-7.72-3.61-15.09-10.2-20.75a40,40,0,0,0-26.21-9.28c-20.08,0-36.42,13.47-36.42,30,0,10.17,6.54,19.9,17.07,25.4l9.36,4.89-8.31,58.75H28.45a2.89,2.89,0,0,0-.88.14v26.68Zm0,0"/></svg>