<svg id="图层_1" data-name="图层 1" xmlns="http://www.w3.org/2000/svg" xmlns:xlink="http://www.w3.org/1999/xlink" viewBox="0 0 200 200"><defs><style>.cls-1{fill:none;}.cls-2{clip-path:url(#clip-path);}</style><clipPath id="clip-path"><rect class="cls-1" x="0.92" y="2.38" width="198" height="194.99"/></clipPath></defs><title>xitong</title><g class="cls-2"><path d="M139.43,37.46a6.61,6.61,0,0,1-6.6-6.63V15.66a6.62,6.62,0,0,1,4.41-6.25l18.49-6.53a6.63,6.63,0,0,1,4.39,12.5l-14.07,5V30.84a6.63,6.63,0,0,1-6.61,6.63Zm-123.88,101a6.55,6.55,0,0,1-4.61-1.9A6.48,6.48,0,0,1,9,132v-6.56A46.51,46.51,0,0,1,55.59,79.05h20a46.51,46.51,0,0,1,46.57,46.34V132a6.53,6.53,0,0,1-6.51,6.5Zm93.58-13v-.06A33.46,33.46,0,0,0,75.62,92.05h-20a33.47,33.47,0,0,0-33.52,33.34v.06ZM7.42,158a6.9,6.9,0,0,1,0-13.79h118a6.9,6.9,0,0,1,0,13.79Zm0,0"/><path d="M28.46,197.09A19.41,19.41,0,0,1,9,177.75v-8.11a6.54,6.54,0,0,1,6.53-6.53H116.11a6.55,6.55,0,0,1,6.55,6.52v8.11a18.82,18.82,0,0,1-1.06,6.3h48L179,56.25H160a6.53,6.53,0,1,1,0-13H192.2a6.53,6.53,0,0,1,0,13h-.12L182.22,191a6.57,6.57,0,0,1-6.52,6.05Zm-6.33-19.34a6.32,6.32,0,0,0,6.33,6.3h74.77a6.33,6.33,0,0,0,6.34-6.3v-1.6H22.13Zm0,0"/></g><path d="M140.08,143.34a6.52,6.52,0,0,1-6.52-6.5V56.21H100.43l1.1,15a6.56,6.56,0,0,1-1.59,4.72,6.49,6.49,0,0,1-4.47,2.23l-.49,0a6.55,6.55,0,0,1-6.49-6L87.32,56.21h-.1a6.51,6.51,0,0,1,0-13h52.86a6.53,6.53,0,0,1,6.53,6.5v87.14a6.51,6.51,0,0,1-6.51,6.5Zm0,0"/></svg>