<svg id="图层_1" data-name="图层 1" xmlns="http://www.w3.org/2000/svg" xmlns:xlink="http://www.w3.org/1999/xlink" viewBox="0 0 200 200"><defs><style>.cls-1{fill:none;}.cls-2{clip-path:url(#clip-path);}</style><clipPath id="clip-path"><rect class="cls-1" x="11.05" y="1.44" width="179.89" height="198"/></clipPath></defs><title>xitong</title><g class="cls-2"><path d="M85.33,149.53h-.46l-18-.46H46.64a5.22,5.22,0,0,0-5.26,5.26,5.31,5.31,0,0,0,4,5.11.57.57,0,0,1,.46.15H66.61l18.72.47H86a5.28,5.28,0,0,0-.62-10.53Zm-.15-30.64H46.64a5.22,5.22,0,0,0-5.26,5.27,5.3,5.3,0,0,0,4,5.1.55.55,0,0,1,.46.16H85.33a5.22,5.22,0,0,0,5.26-5.26,5.35,5.35,0,0,0-5.41-5.27ZM46.49,88.72h-.15a5.26,5.26,0,1,0,0,10.52h91a2.69,2.69,0,0,0,1.08-.15,5.47,5.47,0,0,0,4.49-5.27,5.22,5.22,0,0,0-5.26-5.26h-.47l-90.68.16Zm143.45,101.2-16.25-16.25a37.51,37.51,0,0,0,7-22.43A36.77,36.77,0,1,0,143.05,189a36.46,36.46,0,0,0,22.44-7l16.25,16.25a3.1,3.1,0,0,0,4.18,0l4.18-4.18a3,3,0,0,0-.16-4.18Zm-72.42-37.76a26.26,26.26,0,1,1,26.31,26.31,26.24,26.24,0,0,1-26.31-26.31Zm0,0"/></g><path d="M104.52,188.84H21.58V12.12h90.68V52.35a10.91,10.91,0,0,0,8.51,10.52,11.63,11.63,0,0,0,2,.16h40.08v40.85h10.68V57.3a7.67,7.67,0,0,0-2.48-5.72l-.31-.31L141.2,22.49c-.16,0-18.73-18.11-18.88-18.26a9.17,9.17,0,0,0-1.24-1.09A6.72,6.72,0,0,0,120,2.37a7.34,7.34,0,0,0-3.1-.93H21.73A10.91,10.91,0,0,0,11.21,10a9.22,9.22,0,0,0-.16,2.17V188.68a10.63,10.63,0,0,0,8.51,10.37,9.26,9.26,0,0,0,2.17.16h82.79ZM122.94,19.7l34.19,32.65H122.94Zm0,0"/></svg>