<svg id="图层_1" data-name="图层 1" xmlns="http://www.w3.org/2000/svg" xmlns:xlink="http://www.w3.org/1999/xlink" viewBox="0 0 200 200"><defs><style>.cls-1{fill:none;}.cls-2{clip-path:url(#clip-path);}</style><clipPath id="clip-path"><rect class="cls-1" x="1.59" y="0.96" width="197.71" height="198"/></clipPath></defs><title>xitong</title><g class="cls-2"><path d="M18,1.18H139a8.92,8.92,0,0,1,6.3,2.61L196.45,55a8.92,8.92,0,0,1,2.61,6.3V182.23a16.46,16.46,0,0,1-16.46,16.46H18A16.46,16.46,0,0,1,1.55,182.23V17.64A16.46,16.46,0,0,1,18,1.18ZM180,61.83,138.42,20.25a8.92,8.92,0,0,0-6.3-2.61H26.92A8.91,8.91,0,0,0,18,26.55V173.32a8.91,8.91,0,0,0,8.91,8.91H173.69a8.91,8.91,0,0,0,8.91-8.91V68.12A8.89,8.89,0,0,0,180,61.83ZM133.22,17.64V91a8.9,8.9,0,0,1-8.9,8.91H43.38A8.91,8.91,0,0,1,34.47,91V17.64H50.93V74.57a8.91,8.91,0,0,0,8.91,8.91h48a8.91,8.91,0,0,0,8.91-8.91V17.64ZM83.85,34.1h16.46V67H83.85Zm0,0"/></g></svg>