<svg id="图层_1" data-name="图层 1" xmlns="http://www.w3.org/2000/svg" xmlns:xlink="http://www.w3.org/1999/xlink" viewBox="0 0 200 200"><defs><style>.cls-1{fill:none;}.cls-2{clip-path:url(#clip-path);}</style><clipPath id="clip-path"><rect class="cls-1" x="0.94" y="30.87" width="198" height="139.07"/></clipPath></defs><title>xitong</title><g class="cls-2"><path d="M198.94,122.08a45.32,45.32,0,0,1-45.32,45.32,8.85,8.85,0,1,1,0-17.7,27.62,27.62,0,0,0,.54-55.24l-7.42-.14L145.58,87a45.54,45.54,0,0,0-90,0L54.44,94.6l-7.71-.14h-.5a27.62,27.62,0,0,0,0,55.24,8.85,8.85,0,0,1,0,17.7,45.32,45.32,0,0,1-6.57-90.17,63.25,63.25,0,0,1,122,.23,45.35,45.35,0,0,1,37.32,44.62Zm0,0"/></g><path d="M88.14,121.14a8.85,8.85,0,0,1-12.51-12.52L93.57,90.68a8.84,8.84,0,0,1,12.51,0l18.14,18.13a8.85,8.85,0,0,1-12.52,12.52L99.83,109.45Zm0,0"/><path d="M91.07,96.94a8.85,8.85,0,0,1,17.7,0v63.88a8.85,8.85,0,1,1-17.7,0Zm0,0"/></svg>