<?xml version="1.0" standalone="no"?><!DOCTYPE svg PUBLIC "-//W3C//DTD SVG 1.1//EN" "http://www.w3.org/Graphics/SVG/1.1/DTD/svg11.dtd"><svg t="1564124852892" class="icon" viewBox="0 0 1024 1024" version="1.1" xmlns="http://www.w3.org/2000/svg" p-id="2087" xmlns:xlink="http://www.w3.org/1999/xlink" width="64" height="64"><defs><style type="text/css"></style></defs><path d="M482.117818 913.408A380.928 380.928 0 0 1 101.469091 532.852364a380.928 380.928 0 0 1 380.555636-380.462546 380.928 380.928 0 0 1 380.462546 380.462546A380.928 380.928 0 0 1 482.210909 913.408m0-862.580364A482.583273 482.583273 0 0 0 0 532.852364a482.583273 482.583273 0 0 0 482.117818 482.117818 482.583273 482.583273 0 0 0 482.024727-482.117818A482.583273 482.583273 0 0 0 482.210909 50.827636M432.500364 723.316364a56.506182 56.506182 0 0 1 78.661818 0.186181 53.248 53.248 0 0 1 16.663273 39.470546c0 15.639273-5.678545 29.044364-16.756364 39.656727a55.016727 55.016727 0 0 1-39.563636 15.918546 54.923636 54.923636 0 0 1-38.81891-15.639273 53.061818 53.061818 0 0 1-16.756363-39.936c0-15.639273 5.585455-29.044364 16.570182-39.656727z m62.091636-476.346182c46.545455 0 84.433455 12.660364 112.453818 37.608727 28.485818 25.227636 43.008 58.647273 43.008 99.514182 0 27.927273-6.702545 53.899636-19.735273 76.986182-12.846545 22.434909-34.257455 46.08-63.58109 70.469818-21.690182 17.966545-36.305455 32.302545-43.380364 42.449454-6.144 8.843636-9.309091 22.062545-9.309091 39.191273v24.576c0 0.558545 0.372364 0.930909 0.372364 1.582546a42.449455 42.449455 0 0 1-85.085091 0c0-0.558545 0.279273-0.930909 0.279272-1.489455V610.676364c0-25.6 5.306182-47.941818 15.732364-66.746182 10.24-18.525091 27.741091-37.236364 53.527273-57.250909 22.341818-17.221818 38.260364-33.419636 47.476363-47.941818a85.922909 85.922909 0 0 0 13.21891-47.848728 57.157818 57.157818 0 0 0-19.269819-44.683636c-13.218909-12.101818-31.371636-18.059636-55.109818-18.059636-39.191273 0-72.890182 14.615273-102.865454 44.590545a13.218909 13.218909 0 0 1-22.528-9.309091v-34.443636c0-27.927273 16.477091-52.689455 41.890909-63.394909a238.312727 238.312727 0 0 1 92.904727-18.525091z" p-id="2088"></path></svg>