<?xml version="1.0" standalone="no"?><!DOCTYPE svg PUBLIC "-//W3C//DTD SVG 1.1//EN" "http://www.w3.org/Graphics/SVG/1.1/DTD/svg11.dtd"><svg t="1564382880245" class="icon" viewBox="0 0 1024 1024" version="1.1" xmlns="http://www.w3.org/2000/svg" p-id="2729" xmlns:xlink="http://www.w3.org/1999/xlink" width="64" height="64"><defs><style type="text/css"></style></defs><path d="M948.5 885.5L782 719c54-67.5 90-157.5 90-252 0-225-180-405-405-405S62 242 62 467s180 405 405 405c94.5 0 184.5-31.5 252-90l166.5 166.5c9 9 22.5 13.5 31.5 13.5s22.5-4.5 31.5-13.5c18-18 18-45 0-63zM467 782c-175.5 0-315-139.5-315-315s139.5-315 315-315 315 139.5 315 315-139.5 315-315 315z" p-id="2730"></path></svg>