<?xml version="1.0" standalone="no"?><!DOCTYPE svg PUBLIC "-//W3C//DTD SVG 1.1//EN" "http://www.w3.org/Graphics/SVG/1.1/DTD/svg11.dtd"><svg t="1563171323844" class="icon" viewBox="0 0 1024 1024" version="1.1" xmlns="http://www.w3.org/2000/svg" p-id="6507" xmlns:xlink="http://www.w3.org/1999/xlink" width="64" height="64"><defs><style type="text/css"></style></defs><path d="M928.768 1023.965867H95.232c-52.736 0-95.232-41.472-95.232-93.218134V192.1024c0-51.234133 42.496-93.218133 95.232-93.218133h59.392v118.818133c0 48.674133 40.448 88.644267 90.112 88.644267s90.112-39.970133 90.112-88.644267V98.884267h353.792v118.818133c0 48.674133 40.448 88.644267 90.112 88.644267s90.112-39.970133 90.112-88.644267V98.884267h59.904c52.736 0 95.232 41.984 95.232 93.218133v738.645333c0 51.234133-42.496 93.218133-95.232 93.218134z m12.288-679.2192H82.944v586.001066c0 6.656 5.632 12.288 12.288 12.288h833.536c6.656 0 12.288-5.632 12.288-12.288V344.746667zM682.666667 682.666667h136.533333v136.533333h-136.533333v-136.533333z m0-238.933334h136.533333v136.533334h-136.533333v-136.533334z m-238.933334 238.933334h136.533334v136.533333h-136.533334v-136.533333z m0-238.933334h136.533334v136.533334h-136.533334v-136.533334z m-238.933333 238.933334h136.533333v136.533333H204.8v-136.533333z m0-238.933334h136.533333v136.533334H204.8v-136.533334z m573.952-171.2128c-30.72 0-56.32-24.576-56.32-55.330133V54.818133C722.432 24.610133 747.52 0 778.752 0c31.232 0 56.32 24.610133 56.32 54.818133v162.884267c0 30.242133-25.6 54.818133-56.32 54.818133z m-534.528 0c-30.72 0-55.808-24.576-56.32-55.330133V54.818133C187.904 24.610133 213.504 0 244.224 0c31.232 0 56.32 24.610133 56.32 54.818133v162.884267c0 30.242133-25.6 54.818133-56.32 54.818133z" p-id="6508"></path></svg>