<?xml version="1.0" standalone="no"?><!DOCTYPE svg PUBLIC "-//W3C//DTD SVG 1.1//EN" "http://www.w3.org/Graphics/SVG/1.1/DTD/svg11.dtd"><svg t="1563165533951" class="icon" viewBox="0 0 1610 1024" version="1.1" xmlns="http://www.w3.org/2000/svg" p-id="5778" xmlns:xlink="http://www.w3.org/1999/xlink" width="100.625" height="64"><defs><style type="text/css"></style></defs><path d="M800.71876 289.949222C683.769228 289.949222 588.854594 384.863857 588.854594 501.81339 588.854594 618.757101 683.769228 713.669795 800.71876 713.669795 917.662471 713.669795 1012.575166 618.757101 1012.575166 501.81339 1012.575166 384.863857 917.662471 289.949222 800.71876 289.949222L800.71876 289.949222ZM800.71876 993.398886C380.842749 993.398886 53.210944 564.873101 39.466789 546.624542L5.708021 501.813392 39.466789 456.996419C53.210944 438.755623 380.842749 10.229835 800.71876 10.229835 1220.588954 10.229835 1548.22076 438.755623 1561.96491 456.996419L1595.723681 501.813392 1561.96491 546.624542C1548.22076 564.873101 1220.588954 993.398886 800.71876 993.398886L800.71876 993.398886 800.71876 993.398886ZM195.8381 501.72994C285.83884 603.693257 527.320286 844.433349 800.71876 844.433349 1075.004145 844.433349 1315.783051 603.943611 1405.58584 501.889078 1315.592858 399.933523 1074.111415 159.19343 800.71876 159.19343 526.425617 159.19343 285.656412 399.675407 195.8381 501.72994L195.8381 501.72994 195.8381 501.72994Z" p-id="5779"></path></svg>