<?xml version="1.0" standalone="no"?><!DOCTYPE svg PUBLIC "-//W3C//DTD SVG 1.1//EN" "http://www.w3.org/Graphics/SVG/1.1/DTD/svg11.dtd"><svg t="1563347492250" class="icon" viewBox="0 0 1024 1024" version="1.1" xmlns="http://www.w3.org/2000/svg" p-id="6007" xmlns:xlink="http://www.w3.org/1999/xlink" width="64" height="64"><defs><style type="text/css"></style></defs><path d="M512 42.666667C251.733333 42.666667 42.666667 251.733333 42.666667 512s209.066667 469.333333 469.333333 469.333333 469.333333-209.066667 469.333333-469.333333S772.266667 42.666667 512 42.666667z m-4.266667 230.4c64 0 115.2 51.2 115.2 110.933333s-51.2 110.933333-115.2 110.933333c-64 0-115.2-51.2-115.2-110.933333s51.2-110.933333 115.2-110.933333z m243.2 469.333333H273.066667c-12.8 0-21.333333-8.533333-21.333334-21.333333 0-93.866667 72.533333-166.4 166.4-166.4h183.466667c93.866667 0 166.4 76.8 170.666667 166.4 0 12.8-8.533333 21.333333-21.333334 21.333333z" p-id="6008"></path></svg>