<?xml version="1.0" standalone="no"?><!DOCTYPE svg PUBLIC "-//W3C//DTD SVG 1.1//EN" "http://www.w3.org/Graphics/SVG/1.1/DTD/svg11.dtd"><svg t="1562664151504" class="icon" viewBox="0 0 1024 1024" version="1.1" xmlns="http://www.w3.org/2000/svg" p-id="12482" xmlns:xlink="http://www.w3.org/1999/xlink" width="16" height="16"><defs><style type="text/css"></style></defs><path d="M511.997442 302.425867c-209.57004 0-349.287151 209.574133-349.287151 209.574133s139.717112 209.574133 349.287151 209.574133c209.574133 0 349.291245-209.574133 349.291245-209.574133S721.571574 302.425867 511.997442 302.425867L511.997442 302.425867zM511.997442 650.246621c-76.771501 0-138.981355-62.241576-138.981355-138.981355 0-76.735685 62.209854-138.981355 138.981355-138.981355 76.775594 0 138.981355 62.209854 138.981355 138.981355C650.978796 588.04086 588.773036 650.246621 511.997442 650.246621L511.997442 650.246621zM442.140421 511.647983c0-18.195408 7.491625-36.279275 20.358677-49.146327s30.955013-20.358677 49.15042-20.358677 36.283368 7.490601 49.15042 20.358677 20.358677 30.950919 20.358677 49.146327c0 18.200524-7.490601 36.283368-20.358677 49.151443-12.867052 12.866029-30.955013 20.357654-49.15042 20.357654s-36.283368-7.490601-49.15042-20.357654C449.632045 547.931351 442.140421 529.848507 442.140421 511.647983L442.140421 511.647983zM442.140421 511.647983" p-id="12483"></path></svg>