<svg id="图层_2" data-name="图层 2" xmlns="http://www.w3.org/2000/svg" viewBox="0 0 30 30.45"><title>矢量智能对象4</title><path d="M23.38,3H20.26V1.07A1.07,1.07,0,0,0,19.19,0H11.32a1.06,1.06,0,0,0-1.06,1.07V3H7.14A2.88,2.88,0,0,0,4.26,5.88V27.12A2.88,2.88,0,0,0,7.14,30H23.38a2.88,2.88,0,0,0,2.88-2.88V5.88A2.88,2.88,0,0,0,23.38,3ZM14,22H8.65c-.49-.54-.9-.95-.9-1.44s.41-.91.9-.56H14c.5-.35.9.06.9.56S14.46,21.46,14,22Zm3.2-5H8.62a1.36,1.36,0,0,1-.9-1.14.85.85,0,0,1,.9-.86h8.54a.85.85,0,0,1,.9.86A1.38,1.38,0,0,1,17.16,17Zm3.51-4H8.58a.81.81,0,0,1-.9-.83A1.44,1.44,0,0,1,8.58,11H20.67a1.45,1.45,0,0,1,.91,1.17A.81.81,0,0,1,20.67,13Z"/></svg>