<?xml version="1.0" standalone="no"?><!DOCTYPE svg PUBLIC "-//W3C//DTD SVG 1.1//EN" "http://www.w3.org/Graphics/SVG/1.1/DTD/svg11.dtd"><svg t="1562636726421" class="icon" viewBox="0 0 1024 1024" version="1.1" xmlns="http://www.w3.org/2000/svg" p-id="3293" xmlns:xlink="http://www.w3.org/1999/xlink" width="16" height="16"><defs><style type="text/css"></style></defs><path d="M916.996 133.943H538.56c-20.904 0-37.84 16.858-37.84 37.664s16.937 37.67 37.84 37.67h378.435c20.898 0 37.84-16.858 37.84-37.67 0.001-20.8-16.942-37.664-37.839-37.664z m0 0M765.616 585.957h-227.05c-20.904 0-37.845 16.858-37.845 37.671 0 20.802 16.948 37.665 37.846 37.665h227.049c20.902 0 37.845-16.858 37.845-37.665-0.001-20.807-16.95-37.67-37.845-37.67z m0 0M689.93 811.969H538.56c-20.898 0-37.84 16.858-37.84 37.665 0 20.806 16.949 37.67 37.84 37.67H689.93c20.904 0 37.846-16.864 37.846-37.67 0-20.802-16.948-37.665-37.845-37.665z m0 0M841.306 359.948H538.56c-20.898 0-37.84 16.864-37.84 37.67 0 20.802 16.931 37.67 37.84 37.67h302.746c20.898 0 37.843-16.863 37.843-37.67 0.001-20.8-16.935-37.67-37.843-37.67z m0 0M386.43 770.763H273.783V100.97c0-20.802-16.942-37.66-37.84-37.66-20.908 0-37.844 16.859-37.844 37.66v669.794H85.451c-20.891 0-26.21 12.266-11.872 27.4l144.649 152.635c8.967 9.466 23.558 9.519 32.601 0.132l147.26-152.975c14.452-15.007 9.239-27.192-11.66-27.192z m0 0"  p-id="3294"></path></svg>