<svg id="图层_1" data-name="图层 1" xmlns="http://www.w3.org/2000/svg" viewBox="0 0 200 200"><title>xitong</title><rect x="93.49" y="71.9" width="14.14" height="28.29"/><rect x="36.92" y="100.19" width="127.29" height="14.14"/><rect x="36.92" y="100.19" width="14.14" height="28.29"/><rect x="150.06" y="100.19" width="14.14" height="28.29"/><path d="M121.78,1.19H79.35A14.18,14.18,0,0,0,65.21,15.33V57.76A14.18,14.18,0,0,0,79.35,71.9h42.43a14.18,14.18,0,0,0,14.14-14.14V15.33A14.18,14.18,0,0,0,121.78,1.19Zm0,56.57H79.35V15.33h42.43Z"/><path d="M65.21,128.47H22.78A14.19,14.19,0,0,0,8.63,142.62V185a14.19,14.19,0,0,0,14.15,14.15H65.21A14.19,14.19,0,0,0,79.35,185V142.62A14.19,14.19,0,0,0,65.21,128.47Zm0,56.57H22.78V142.62H65.21Z"/><path d="M178.35,128.47H135.92a14.19,14.19,0,0,0-14.14,14.15V185a14.19,14.19,0,0,0,14.14,14.15h42.43A14.19,14.19,0,0,0,192.49,185V142.62A14.19,14.19,0,0,0,178.35,128.47Zm0,56.57H135.92V142.62h42.43Z"/></svg>