<svg id="图层_1" data-name="图层 1" xmlns="http://www.w3.org/2000/svg" xmlns:xlink="http://www.w3.org/1999/xlink" viewBox="0 0 200 200"><defs><style>.cls-1{fill:none;}.cls-2{clip-path:url(#clip-path);}</style><clipPath id="clip-path"><rect class="cls-1" x="67.12" y="83.22" width="70.12" height="97.2"/></clipPath></defs><title>xitong</title><g class="cls-2"><path d="M109.55,83.75,67.43,137.58a1.51,1.51,0,0,0,.28,2.12,1.47,1.47,0,0,0,1.08.31H92.43c4.15,0,7.27-1.51,6.53,2.15l-7.72,36.29c-.32,1.57,2,2.43,3,1.14l42.67-60a1.53,1.53,0,0,0-.45-2.09,1.56,1.56,0,0,0-.94-.22H114.2a6.2,6.2,0,0,1-6.8-5.55,5.23,5.23,0,0,1,0-1.25l5.39-25.62a1.9,1.9,0,0,0-3.24-1.13Zm0,0"/></g><path d="M133.58,2c-11.75,1.76-19.76,13-19.76,24.91V46.4c0,11.88,8,23.15,19.76,24.91a23.36,23.36,0,0,0,26.83-23V25A23.36,23.36,0,0,0,133.58,2Zm15.18,46.33a11.65,11.65,0,0,1-23.29,0V25a11.65,11.65,0,1,1,23.29,0Z"/><path d="M63.7,2C52,3.71,43.94,15,43.94,26.86V46.4c0,11.88,8,23.15,19.76,24.91a23.36,23.36,0,0,0,26.83-23V25A23.36,23.36,0,0,0,63.7,2ZM78.88,48.28a11.65,11.65,0,0,1-23.29,0V25a11.65,11.65,0,1,1,23.29,0Z"/><path d="M78.88,36.63V48.37A11.55,11.55,0,0,1,67.33,59.92,11.73,11.73,0,0,1,55.59,48.18V36.63H32.29A11.64,11.64,0,0,0,20.65,48.28V188a11.65,11.65,0,0,0,11.64,11.65H172.06A11.65,11.65,0,0,0,183.7,188V48.28a11.64,11.64,0,0,0-11.64-11.65Zm93.18,139.18A12.26,12.26,0,0,1,159.83,188H44.52a12.27,12.27,0,0,1-12.23-12.23v-92A12.27,12.27,0,0,1,44.52,71.57H159.83A12.26,12.26,0,0,1,172.06,83.8ZM147.83,59.92H126.4a.93.93,0,0,1-.93-.93V36.63h23.29V59A.93.93,0,0,1,147.83,59.92Z"/></svg>