<?xml version="1.0" standalone="no"?><!DOCTYPE svg PUBLIC "-//W3C//DTD SVG 1.1//EN" "http://www.w3.org/Graphics/SVG/1.1/DTD/svg11.dtd"><svg t="1569751924626" class="icon" viewBox="0 0 1024 1024" version="1.1" xmlns="http://www.w3.org/2000/svg" p-id="2480" xmlns:xlink="http://www.w3.org/1999/xlink" width="16" height="16"><defs><style type="text/css"></style></defs><path d="M512 616.106667c-6.826667 0-13.653333-1.706667-18.773333-5.12L110.933333 387.413333c-11.093333-6.826667-18.773333-18.773333-18.773333-31.573333s6.826667-24.746667 18.773333-31.573333l381.44-222.72c11.946667-6.826667 26.453333-6.826667 38.4 0L913.066667 324.266667c11.093333 6.826667 18.773333 18.773333 18.773333 31.573333s-6.826667 24.746667-18.773333 31.573333L530.773333 610.986667c-5.12 3.413333-11.946667 5.12-18.773333 5.12zM133.12 355.84l378.88 221.866667 378.88-221.866667L512 134.826667 133.12 355.84z m760.32 1.706667l9.386667-16.213334-9.386667 16.213334z" p-id="2481"></path><path d="M896 497.493333L510.293333 731.306667 125.44 497.493333c-10.24-5.973333-23.04-2.56-29.013333 6.826667-5.973333 10.24-2.56 23.04 6.826666 29.013333l395.946667 240.64c3.413333 1.706667 6.826667 3.413333 11.093333 3.413334s7.68-0.853333 11.093334-3.413334l395.946666-240.64c10.24-5.973333 13.653333-19.626667 6.826667-29.013333-5.12-10.24-17.92-12.8-28.16-6.826667z" p-id="2482"></path><path d="M896 647.68l-384.853333 233.813333-385.706667-233.813333c-10.24-5.973333-23.04-2.56-29.013333 6.826667-5.973333 10.24-2.56 23.04 6.826666 29.013333l395.946667 240.64c3.413333 1.706667 6.826667 3.413333 11.093333 3.413333s7.68-0.853333 11.093334-3.413333l395.946666-240.64c10.24-5.973333 13.653333-19.626667 6.826667-29.013333-5.12-10.24-17.92-13.653333-28.16-6.826667z" p-id="2483"></path></svg>