<svg id="图层_1" data-name="图层 1" xmlns="http://www.w3.org/2000/svg" xmlns:xlink="http://www.w3.org/1999/xlink" viewBox="0 0 200 200"><defs><style>.cls-1{fill:none;}.cls-2{clip-path:url(#clip-path);}</style><clipPath id="clip-path"><rect class="cls-1" x="7.72" y="1.48" width="184.55" height="198"/></clipPath></defs><title>xitong</title><g class="cls-2"><path d="M183.49,122.3v41.76a35.15,35.15,0,0,1-35.15,35.16H42.88A35.16,35.16,0,0,1,7.72,164.06V58.6A35.16,35.16,0,0,1,42.88,23.45H60.45V41H48.74A23.44,23.44,0,0,0,25.3,64.46V158.2a23.44,23.44,0,0,0,23.44,23.44h93.74a23.44,23.44,0,0,0,23.43-23.44V122.3ZM140.1,4.6A10.71,10.71,0,0,0,125,4.6L75.2,54.38c-4.15,4.16-2.74,7.56,3.13,7.56h37.36c.4,11-2.69,49-55.24,57.54,28.12,10.07,88.83-6.32,93.59-57.54h32.72c5.88,0,7.29-3.4,3.13-7.56Zm0,0"/></g></svg>