<svg id="图层_1" data-name="图层 1" xmlns="http://www.w3.org/2000/svg" xmlns:xlink="http://www.w3.org/1999/xlink" viewBox="0 0 200 200"><defs><style>.cls-1{fill:none;}.cls-2{clip-path:url(#clip-path);}</style><clipPath id="clip-path"><rect class="cls-1" x="1.44" y="-0.12" width="198" height="198"/></clipPath></defs><title>xitong</title><g class="cls-2"><path d="M111.61,4A15.89,15.89,0,0,0,90.28,4L4,85.81A8,8,0,0,0,14.67,97.62L16,96.32v85.4A15.93,15.93,0,0,0,32,197.64H78.27V149.78a11.2,11.2,0,0,1,11.21-11.21h21.8a11.2,11.2,0,0,1,11.21,11.21v47.86H169.9a15.89,15.89,0,0,0,15.92-15.92V97.37a8,8,0,0,0,11.5-.33,7.94,7.94,0,0,0-.58-11.23L111.61,4Zm0,0"/></g></svg>