<svg id="图层_1" data-name="图层 1" xmlns="http://www.w3.org/2000/svg" xmlns:xlink="http://www.w3.org/1999/xlink" viewBox="0 0 200 200"><defs><style>.cls-1{fill:none;}.cls-2{clip-path:url(#clip-path);}</style><clipPath id="clip-path"><rect class="cls-1" x="22.84" y="0.92" width="153.2" height="198"/></clipPath></defs><title>xitong</title><g class="cls-2"><path d="M163.45,83.82H68.51V51.71a30.8,30.8,0,1,1,61.6,0v2h19.18V50.9a50,50,0,1,0-100,0V83.82H35.16A12.35,12.35,0,0,0,22.81,96.17v90.14a12.35,12.35,0,0,0,12.35,12.36h128.3a12.34,12.34,0,0,0,12.34-12.36V96.17A12.35,12.35,0,0,0,163.45,83.82Zm-57.2,59.77h0v19.69a1.62,1.62,0,0,1-1.61,1.61H94a1.63,1.63,0,0,1-1.63-1.61V143.59a15.36,15.36,0,1,1,13.87,0Z"/></g></svg>