<svg id="图层_1" data-name="图层 1" xmlns="http://www.w3.org/2000/svg" viewBox="0 0 200 200"><title>xitong</title><path d="M132.18,160.63l-.5-.49H19.57a7.84,7.84,0,0,1-8-7.9V48.57a8.24,8.24,0,0,1,8-8.39H179.32a7.84,7.84,0,0,1,8,7.9v62.21l.49.5a26.11,26.11,0,0,1,6.94,5.92l2,2.47V46.08a15.42,15.42,0,0,0-15.4-15.31H17.07A15.42,15.42,0,0,0,1.68,46.08v108.6A15.42,15.42,0,0,0,17.07,170H138.63l-1.48-2a70.76,70.76,0,0,1-5-7.38Zm0,0"/><path d="M111.21,62.14h62.45V72H111.21Zm0,26.46H142.4v9.87H111.21Zm55.71,22.65a32.35,32.35,0,0,0-32.77,32.59c0,17.78,14.88,32.59,32.77,32.59a32.59,32.59,0,1,0,0-65.18Zm-.5,52.31c-1.48,1.48-4.47,1.48-6.44,0l-13.92-13.82a4.52,4.52,0,0,1,0-5.93c1.48-1.48,4.48-1.48,6.45,0l10.92,10.87,21.35-20.74c1.48-1.48,4.47-1.48,6.45,0a4.5,4.5,0,0,1,0,5.92Zm0,0"/><path d="M66,123.6a31.41,31.41,0,1,0-22-3.11,24.81,24.81,0,0,0-9,5.4c6.94-1,10.43-1.59,20.59,5,7.64,5,26.29,2.44,32.07-3.6-8.45,3.13-13.62.17-21.73-3.72Zm-17.1-9.12c-2-1.11-4.45-3.37-5,.14l-2.5-.11V102.05h2.38C46.73,112.3,50.5,114,58.46,114.59A8,8,0,0,0,65.09,112a7.69,7.69,0,0,0,.92-5.64c-.63-2.7-4.32-5.16-10.48-8.39C45.42,92.61,40.86,90,40.28,84.15c-.9-9.35,7.61-14.69,18.85-15.22A20,20,0,0,1,69.3,71.35c1.51.75,5,2.75,5.52.4h2.9v12l-2.59-.08c-.95-8.4-8.53-12.23-15.33-12.23-5.64,0-7.41,3.17-6.8,7.12.44,2.73,2.65,4.88,9.91,8.59,9.79,5,15.3,9,15.51,15.72.26,9.06-6.77,13.47-18,14a21.77,21.77,0,0,1-11.47-2.44Zm0,0"/></svg>