<svg id="图层_1" data-name="图层 1" xmlns="http://www.w3.org/2000/svg" xmlns:xlink="http://www.w3.org/1999/xlink" viewBox="0 0 200 200"><defs><style>.cls-1{fill:none;}.cls-2{clip-path:url(#clip-path);}</style><clipPath id="clip-path"><rect class="cls-1" x="0.88" y="5.01" width="198" height="191.74"/></clipPath></defs><title>xitong</title><g class="cls-2"><path d="M76.11,5.06H16.69A15.9,15.9,0,0,0,.85,21V76.85a15.91,15.91,0,0,0,15.84,16H92V21a15.89,15.89,0,0,0-15.84-16Zm4,75.78H24.62a11.94,11.94,0,0,1-11.89-12V29A11.94,11.94,0,0,1,24.62,17H68.19A11.93,11.93,0,0,1,80.07,29Zm103-75.78H123.65A15.9,15.9,0,0,0,107.8,21v71.8h75.26a15.9,15.9,0,0,0,15.84-16V21a15.89,15.89,0,0,0-15.84-16Zm4,63.81a11.93,11.93,0,0,1-11.89,12H119.68V29a11.93,11.93,0,0,1,11.88-12h43.57A11.93,11.93,0,0,1,187,29ZM.85,124.71v55.84a15.91,15.91,0,0,0,15.84,16H76.11a15.9,15.9,0,0,0,15.84-16V108.76H16.69A15.9,15.9,0,0,0,.85,124.71Zm79.22-4v51.86a11.92,11.92,0,0,1-11.88,12H24.62a11.93,11.93,0,0,1-11.89-12V132.69a11.94,11.94,0,0,1,11.89-12Zm103-12H107.8v71.79a15.9,15.9,0,0,0,15.85,16h59.41a15.9,15.9,0,0,0,15.84-16V124.71a15.89,15.89,0,0,0-15.84-15.95Zm4,63.82a11.93,11.93,0,0,1-11.89,12H131.56a11.92,11.92,0,0,1-11.88-12V120.72h55.45a11.94,11.94,0,0,1,11.89,12Zm0,0"/></g></svg>