<svg id="图层_1" data-name="图层 1" xmlns="http://www.w3.org/2000/svg" viewBox="0 0 200 200"><title>xitong</title><path d="M166,.69H34C19.45.69,7.63,13.35,7.63,29V170.4c0,15.62,11.82,28.29,26.4,28.29H166c14.58,0,26.4-12.67,26.4-28.29V29C192.43,13.35,180.61.69,166,.69Zm13.21,169.75a14.62,14.62,0,0,1-3.86,10,12.77,12.77,0,0,1-9.33,4.13h-132a12.72,12.72,0,0,1-9.36-4.13,14.55,14.55,0,0,1-3.89-10V29c0-7.83,5.94-14.17,13.25-14.17h132A12.74,12.74,0,0,1,175.38,19a14.62,14.62,0,0,1,3.86,10Zm0,0"/><path d="M157.81,64.32H105a7.08,7.08,0,0,0,0,14.13h52.8a7.08,7.08,0,0,0,0-14.13Zm0,56.6H105a7.09,7.09,0,0,0,0,14.14h52.8a7.09,7.09,0,0,0,0-14.14ZM65.4,103.25c-12.76,0-23.1,11.08-23.1,24.75s10.34,24.75,23.1,24.75S88.5,141.67,88.5,128s-10.34-24.75-23.1-24.75Zm7,32.26a9.42,9.42,0,0,1-12.51,1.32,11.07,11.07,0,0,1-3.65-12.9,9.8,9.8,0,0,1,11.09-6.34,10.46,10.46,0,0,1,8,10.41,11,11,0,0,1-2.91,7.51Zm8.13-83.23L58.8,75.58l-8.54-9.15a6.28,6.28,0,0,0-9.32,0,7.41,7.41,0,0,0,0,10l13.2,14.14a6.28,6.28,0,0,0,9.32,0L89.87,62.28a7.44,7.44,0,0,0,0-10,6.29,6.29,0,0,0-9.3,0Zm0,0"/></svg>