<svg id="图层_1" data-name="图层 1" xmlns="http://www.w3.org/2000/svg" xmlns:xlink="http://www.w3.org/1999/xlink" viewBox="0 0 200 200"><defs><style>.cls-1{fill:none;}.cls-2{clip-path:url(#clip-path);}</style><clipPath id="clip-path"><rect class="cls-1" x="1.44" y="1.86" width="198" height="197"/></clipPath></defs><title>xitong</title><g class="cls-2"><path d="M1.41,186.74A12.64,12.64,0,0,0,14.73,198.6H185.94a11.92,11.92,0,1,0,0-23.67H14.73A12.63,12.63,0,0,0,1.41,186.74ZM170.8,71.19H146a3.12,3.12,0,0,1-3.29-2.92V7.15A5.49,5.49,0,0,0,136.94,2H63.73a5.49,5.49,0,0,0-5.79,5.12V68.27a3.13,3.13,0,0,1-3.3,2.92H29.86a5.11,5.11,0,0,0-4.54,8.32l70.47,79.11a6.28,6.28,0,0,0,9.08,0l70.48-79.11a5.12,5.12,0,0,0-4.55-8.32Zm0,0"/></g></svg>