<svg id="图层_1" data-name="图层 1" xmlns="http://www.w3.org/2000/svg" viewBox="0 0 200 200"><defs><style>.cls-1{fill:none;}</style></defs><title>xitong</title><path d="M169.21,85.7a9.21,9.21,0,0,0-9,9.4v84.76H25.27V38.61h80.37a5.62,5.62,0,0,0,.59,0,9.21,9.21,0,0,0,9-9.42,9.21,9.21,0,0,0-9-9.42h-90a9.2,9.2,0,0,0-9,9.4V189.26a9.2,9.2,0,0,0,9,9.4H169.21a9.2,9.2,0,0,0,9-9.4V95.74c0-.2,0-.4,0-.62a9.21,9.21,0,0,0-9-9.42Zm23-80.61a13.06,13.06,0,0,0-19.08,0l-9.56,10,19.09,20,9.55-10a14.63,14.63,0,0,0,0-20Zm0,0"/><rect class="cls-1" x="7.28" y="0.92" width="188.94" height="198"/><path d="M74.56,108.29l82.7-86.55,19.08,20-82.7,86.55Zm-9.55,30,28.63-10-19.08-20Zm0,0"/></svg>