<?xml version="1.0" standalone="no"?><!DOCTYPE svg PUBLIC "-//W3C//DTD SVG 1.1//EN" "http://www.w3.org/Graphics/SVG/1.1/DTD/svg11.dtd"><svg t="1569376990210" class="icon" viewBox="0 0 1024 1024" version="1.1" xmlns="http://www.w3.org/2000/svg" p-id="5867" xmlns:xlink="http://www.w3.org/1999/xlink" width="16" height="16"><defs><style type="text/css"></style></defs><path d="M512 1024c-282.304 0-512-229.696-512-512s229.696-512 512-512 512 229.696 512 512-229.696 512-512 512zM512 96A416.512 416.512 0 0 0 96 512c0 229.376 186.624 416 416 416s416-186.624 416-416S741.376 96 512 96zM579.84 512l126.08 126.08a48 48 0 1 1-67.84 67.84L512 579.84l-126.08 126.08a47.808 47.808 0 0 1-67.84 0 48 48 0 0 1 0-67.84L444.16 512 318.08 385.92a48 48 0 1 1 67.84-67.84L512 444.16l126.08-126.08a48 48 0 1 1 67.84 67.84L579.84 512z" fill="#E72B00" p-id="5868"></path></svg>