<?xml version="1.0" standalone="no"?><!DOCTYPE svg PUBLIC "-//W3C//DTD SVG 1.1//EN" "http://www.w3.org/Graphics/SVG/1.1/DTD/svg11.dtd"><svg t="1564474584395" class="icon" viewBox="0 0 1024 1024" version="1.1" xmlns="http://www.w3.org/2000/svg" p-id="2709" xmlns:xlink="http://www.w3.org/1999/xlink" width="64" height="64"><defs><style type="text/css"></style></defs><path d="M509.283 70.826c-199.178 0-355.847 158.656-355.847 353.634 0 88.382 77.55 215.327 133.764 278.648v0.08l0.103 0.645h0.382c54.538 63.752 166.755 220.265 168.797 223.079 13.463 16.7 32.094 26.233 52.34 26.26 20.168 0 39.15-9.532 52.93-26.547 82.71-105.54 102.258-136.121 115.312-156.344 9.696-15.017 14.484-22.56 44.45-56.985 15.238-17.563 149.05-174.712 149.05-288.836-0.005-194.978-162.11-353.634-361.281-353.634z m0.022 436.238c-61.57 0-111.673-49.03-111.673-109.232 0-60.247 50.104-109.26 111.673-109.26 61.523 0 111.602 49.013 111.602 109.26 0 60.202-50.079 109.232-111.602 109.232z" p-id="2710"></path></svg>