<?xml version="1.0" standalone="no"?><!DOCTYPE svg PUBLIC "-//W3C//DTD SVG 1.1//EN" "http://www.w3.org/Graphics/SVG/1.1/DTD/svg11.dtd"><svg t="1569376889191" class="icon" viewBox="0 0 1024 1024" version="1.1" xmlns="http://www.w3.org/2000/svg" p-id="3097" width="16" height="16" xmlns:xlink="http://www.w3.org/1999/xlink"><defs><style type="text/css"></style></defs><path d="M303.616 472.064C281.6 450.56 245.76 450.56 223.744 472.064c-22.016 22.016-22.016 57.856 0 79.36l186.368 186.368c23.552 23.552 61.952 22.016 82.944-4.096l310.272-372.736c19.968-24.064 16.896-59.392-7.68-79.36-24.064-19.968-59.392-16.896-79.36 7.68l-271.36 325.12-141.312-142.336zM139.776 15.36h744.96C952.832 15.36 1008.64 71.168 1008.64 139.776v744.96c0 68.608-55.808 124.416-124.416 124.416H139.776C71.168 1008.64 15.36 952.832 15.36 884.736V139.776C15.36 71.168 71.168 15.36 139.776 15.36z" p-id="3098" ></path></svg>