<?xml version="1.0" standalone="no"?><!DOCTYPE svg PUBLIC "-//W3C//DTD SVG 1.1//EN" "http://www.w3.org/Graphics/SVG/1.1/DTD/svg11.dtd"><svg t="1563158896504" class="icon" viewBox="0 0 1024 1024" version="1.1" xmlns="http://www.w3.org/2000/svg" p-id="2053" width="64" height="64" xmlns:xlink="http://www.w3.org/1999/xlink"><defs><style type="text/css"></style></defs><path d="M975.96651 260.799267l-2.879992 468.478682c0 13.919961-3.39199 26.815925-10.111971 38.719891-6.719981 11.903967-15.903955 21.34394-27.391923 27.903922l-389.630905 218.559385A63.167822 63.167822 0 0 1 511.967815 1023.99712c-12.287965 0-23.551934-3.103991-33.983904-9.535973L85.409015 785.405791a74.52779 74.52779 0 0 1-27.391923-27.903921A77.343782 77.343782 0 0 1 47.96912 718.781978V260.799267c0-15.871955 4.159988-30.399915 12.767964-43.519878 8.575976-13.119963 19.935944-22.431937 33.983905-27.903922L487.263884 4.735987c8.223977-3.135991 16.351954-4.735987 24.479932-4.735987 8.223977 0 16.319954 1.599996 24.479931 4.703987l392.766895 184.67148c14.04796 5.439985 25.407929 14.879958 33.983905 27.903922 8.703976 13.023963 12.991963 27.647922 12.991963 43.519878z m-463.998695 150.303577l362.68698-167.519529L511.967815 76.031786 143.96885 243.583315l367.998965 167.519529z m35.6159 527.870515L904.510711 735.99793V319.9991l-356.926996 158.463554v460.510705z" p-id="2054" ></path></svg>