<?xml version="1.0" standalone="no"?><!DOCTYPE svg PUBLIC "-//W3C//DTD SVG 1.1//EN" "http://www.w3.org/Graphics/SVG/1.1/DTD/svg11.dtd"><svg t="1564461707354" class="icon" viewBox="0 0 1024 1024" version="1.1" xmlns="http://www.w3.org/2000/svg" p-id="1976" xmlns:xlink="http://www.w3.org/1999/xlink" width="64" height="64"><defs><style type="text/css"></style></defs><path d="M46.545 325.818h60.51l72.145 86.11h658.618l69.818-86.11h69.819v465.455c0 102.4-83.782 186.182-186.182 186.182H232.727c-102.4 0-186.182-83.782-186.182-186.182V325.818z m309.528 295.564v-62.837c0-16.29-13.964-30.254-30.255-30.254s-30.254 13.964-30.254 30.254v93.091c0 16.291 13.963 30.255 30.254 30.255h388.655c16.29 0 30.254-13.964 30.254-30.255v-93.09c0-16.291-13.963-30.255-30.254-30.255s-30.255 13.964-30.255 30.254v62.837H356.073zM139.636 232.727h744.728v62.837l-62.837 76.8H202.473l-62.837-76.8v-62.837z m0-186.182h744.728v62.837l-62.837 76.8H202.473l-62.837-76.8V46.545z" p-id="1977"></path></svg>