<?xml version="1.0" standalone="no"?><!DOCTYPE svg PUBLIC "-//W3C//DTD SVG 1.1//EN" "http://www.w3.org/Graphics/SVG/1.1/DTD/svg11.dtd"><svg t="1563847601966" class="icon" viewBox="0 0 1024 1024" version="1.1" xmlns="http://www.w3.org/2000/svg" p-id="2639" xmlns:xlink="http://www.w3.org/1999/xlink" width="64" height="64"><defs><style type="text/css"></style></defs><path d="M801.875 670.386c-37.256 0-70.878 15.458-94.878 40.281L351.451 532.894a132.755 132.755 0 0 0 1.663-20.895c0-7.111-0.579-14.086-1.663-20.892l355.546-177.772c24 24.821 57.622 40.279 94.878 40.279 72.895 0 131.987-59.091 131.987-131.988 0-72.895-59.093-131.987-131.987-131.987-72.896 0-131.988 59.093-131.988 131.987 0 7.113 0.58 14.086 1.661 20.893L316.002 420.293c-23.998-24.822-57.622-40.281-94.876-40.281-72.895 0-131.988 59.094-131.988 131.987 0 72.898 59.094 131.988 131.988 131.988 37.254 0 70.878-15.455 94.876-40.277l355.546 177.773a133.054 133.054 0 0 0-1.661 20.891c0 72.897 59.093 131.987 131.988 131.987s131.987-59.09 131.987-131.987c0-72.895-59.092-131.988-131.987-131.988z" p-id="2640"></path></svg>