<?xml version="1.0" standalone="no"?><!DOCTYPE svg PUBLIC "-//W3C//DTD SVG 1.1//EN" "http://www.w3.org/Graphics/SVG/1.1/DTD/svg11.dtd"><svg t="1569827697210" class="icon" viewBox="0 0 1024 1024" version="1.1" xmlns="http://www.w3.org/2000/svg" p-id="5646" xmlns:xlink="http://www.w3.org/1999/xlink" width="16" height="16"><defs><style type="text/css"></style></defs><path d="M762.88 807.397053a80.842105 80.842105 0 0 0 80.842105-80.842106v-188.631579h-80.842105v269.473685z m0-350.31579h134.736842a26.947368 26.947368 0 0 1 26.947369 26.947369v242.526315a161.684211 161.684211 0 0 1-161.684211 161.684211H228.621474c-62.140632 0-112.478316-48.235789-112.478316-107.789474v-538.947368c0-59.553684 50.337684-107.789474 112.478316-107.789474h421.78021c62.086737 0 112.478316 48.235789 112.478316 107.789474v215.578947z m-471.578947-47.157895h269.473684a26.947368 26.947368 0 0 1 26.947368 26.947369v26.947368a26.947368 26.947368 0 0 1-26.947368 26.947369h-269.473684a26.947368 26.947368 0 0 1-26.947369-26.947369v-26.947368a26.947368 26.947368 0 0 1 26.947369-26.947369z m0 175.157895h269.473684a26.947368 26.947368 0 0 1 26.947368 26.947369v26.947368a26.947368 26.947368 0 0 1-26.947368 26.947368h-269.473684a26.947368 26.947368 0 0 1-26.947369-26.947368v-26.947368a26.947368 26.947368 0 0 1 26.947369-26.947369z m390.736842-343.578947c0-14.874947-12.773053-26.947368-28.564211-26.947369h-427.92421c-15.791158 0-28.564211 12.072421-28.564211 26.947369v538.947368c0 14.874947 12.773053 26.947368 28.564211 26.947369h456.488421v-565.894737z" p-id="5647"></path></svg>