<?xml version="1.0" standalone="no"?><!DOCTYPE svg PUBLIC "-//W3C//DTD SVG 1.1//EN" "http://www.w3.org/Graphics/SVG/1.1/DTD/svg11.dtd"><svg t="1569827594496" class="icon" viewBox="0 0 1024 1024" version="1.1" xmlns="http://www.w3.org/2000/svg" p-id="4314" xmlns:xlink="http://www.w3.org/1999/xlink" width="16" height="16"><defs><style type="text/css"></style></defs><path d="M839.912 959.355H183.359c-65.93 0-119.381-53.435-119.381-119.38V183.42c0-65.927 53.451-119.38 119.38-119.38h432.724c8.24 0 14.933 6.676 14.933 14.915V108.8c0 8.256-6.693 14.932-14.933 14.932h-402.88c-49.45 0-89.535 40.084-89.535 89.533V810.13c0 49.45 40.085 89.535 89.535 89.535h596.865c49.45 0 89.533-40.085 89.533-89.535V407.25c0-8.24 6.693-14.932 14.932-14.932h29.847c8.237 0 14.913 6.694 14.913 14.932v432.725c-0.001 65.945-53.452 119.38-119.38 119.38z m52.608-710.41L768.484 131.853l37.664-37.815c29.123-29.223 77.008-29.997 106.986-1.699l15.503 14.627c29.964 28.3 30.654 74.941 1.533 104.181l-37.65 37.798z m-590.979 351.8l124.02 117.094-182.516 62.447 58.496-179.542zM862.39 279.21L455.676 687.59l-124.02-117.095L738.37 162.12 862.39 279.21z" fill="" p-id="4315"></path></svg>