<?xml version="1.0" standalone="no"?><!DOCTYPE svg PUBLIC "-//W3C//DTD SVG 1.1//EN" "http://www.w3.org/Graphics/SVG/1.1/DTD/svg11.dtd"><svg t="1562576012146" class="icon" viewBox="0 0 1025 1024" version="1.1" xmlns="http://www.w3.org/2000/svg" p-id="4293" xmlns:xlink="http://www.w3.org/1999/xlink" width="16.015625" height="16"><defs><style type="text/css"></style></defs><path d="M1011.712 526.54c-12.493 11.88-13.312 10.855-50.995 10.855H886.17v355.533c0 54.272-31.54 86.016-88.884 86.016H693.043l-40.345-0.614v-307.2c0-36.864-20.89-46.285-45.056-46.285H422.707c-27.033 0-48.333 10.24-48.333 44.441V978.74l-53.657 0.205h-90.931c-54.682 0-88.884-28.262-88.884-91.136V537.6h-76.8c-40.55 0-42.803-5.734-52.428-16.384-19.047-21.3-18.023-47.718 30.515-84.173L468.787 74.957c12.493-8.807 25.395-25.805 41.37-25.805h6.758c16.18 0 28.877 13.517 41.575 22.323l422.502 365.363c40.755 24.781 55.91 65.536 30.72 89.703z"  p-id="4294"></path></svg>