<?xml version="1.0" standalone="no"?><!DOCTYPE svg PUBLIC "-//W3C//DTD SVG 1.1//EN" "http://www.w3.org/Graphics/SVG/1.1/DTD/svg11.dtd"><svg t="1562575728281" class="icon" viewBox="0 0 1024 1024" version="1.1" xmlns="http://www.w3.org/2000/svg" p-id="1969" xmlns:xlink="http://www.w3.org/1999/xlink" width="16" height="16"><defs><style type="text/css"></style></defs><path d="M677.293627 750.791571c-50.119491 35.55682-108.762099 53.381791-168.71147 52.5611a301.700343 301.700343 0 0 1-23.573905-1.193175c-3.178389-0.302899-6.357801-0.830925-9.55154-1.233084-6.122441-0.820692-12.258185-1.651616-18.215873-2.819209-3.694135-0.708128-7.302313-1.665942-10.910491-2.514263-5.845125-1.38965-11.663644-2.791579-17.367553-4.510734-2.749624-0.861624-5.427616-1.847068-8.14961-2.776229-6.580882-2.235924-13.134135-4.538363-19.518543-7.246032-1.443885-0.585331-2.832512-1.27504-4.276396-1.929955-7.440459-3.319605-14.826684-6.801916-21.935592-10.717086l-0.985444-0.511653a291.461141 291.461141 0 0 1-65.541739-49.717332c-0.292666-0.302899-0.61296-0.666172-0.930185-1.013073a282.733363 282.733363 0 0 1-17.201777-19.157315c-1.137916-1.417279-2.249227-2.944052-3.402493-4.402263-39.387056-49.894364-63.141062-113.035426-63.141063-181.732018h66.811662a4.842285 4.842285 0 0 0 4.270257-2.551102 4.844332 4.844332 0 0 0-0.218988-4.969175L182.437076 333.800435a4.844332 4.844332 0 0 0-4.052293-2.184758 4.841262 4.841262 0 0 0-4.052292 2.184758l-112.307856 170.554444c-0.948605 1.442862-1.094938 3.345188-0.218987 4.970199s2.545986 2.550079 4.272303 2.550079h66.825988c0 80.759325 24.864294 155.617244 67.110467 217.508849 0.5137 0.862647 0.889253 1.778506 1.458212 2.641153 4.372587 6.329149 9.233292 12.174274 13.924127 18.157545 1.749854 2.26253 3.388167 4.593622 5.206582 6.814196 6.91448 8.497535 14.257725 16.480346 21.811772 24.282033 0.721431 0.777713 1.388627 1.540076 2.096754 2.235924 25.351388 25.697265 54.020334 47.356564 85.201497 64.668858 0.805342 0.487094 1.610684 0.988514 2.497891 1.444909 8.982582 4.88424 18.21485 9.30083 27.571962 13.480012 2.334161 1.01205 4.611018 2.15099 6.983041 3.152807 7.997138 3.359514 16.21531 6.302543 24.504091 9.107425 3.91517 1.346671 7.801686 2.720971 11.773138 3.955078 7.233752 2.166339 14.632255 3.984754 22.101367 5.775541 4.942569 1.166569 9.856485 2.429329 14.898315 3.400446 2.095731 0.430812 4.066619 1.083681 6.123464 1.402953 7.023974 1.263783 14.104229 1.970888 21.143553 2.832511 2.539846 0.305969 5.039783 0.73678 7.580652 1.013074 12.648065 1.263783 25.252127 2.095731 37.845956 2.095731 77.066213 0 152.258753-23.864524 216.757743-69.610405 20.549012-14.617929 25.562189-43.300178 11.16427-64.138785-14.44192-20.88261-42.818201-25.921369-63.365166-11.303441zM891.136993 511.874133c-0.042979-80.508615-24.753777-155.214061-66.793242-216.980823-0.610914-1.055029-1.028423-2.124384-1.720178-3.110851-5.220908-7.552-10.927887-14.591323-16.605189-21.642926-0.651846-0.861624-1.261737-1.76418-1.956562-2.611477-38.47222-47.258327-86.770226-83.757612-141.511991-107.622136-1.515516-0.667196-2.99931-1.402953-4.52506-2.069125-8.733918-3.63683-17.689894-6.858198-26.683732-9.898441-3.25002-1.082658-6.427386-2.275833-9.745968-3.2623-7.844665-2.400676-15.799848-4.359284-23.825639-6.233982-4.427846-1.041726-8.856715-2.179642-13.342889-3.067872-2.219551-0.430812-4.315282-1.096984-6.509251-1.499143-5.983271-1.041726-11.995195-1.499144-17.992793-2.29016-4.164856-0.527003-8.219195-1.179872-12.411681-1.610684-10.078543-0.944512-20.077268-1.345648-30.071899-1.525749-1.832741 0-3.595898-0.292666-5.414313-0.292666-0.332575 0-0.63752 0.098237-0.971118 0.125867-76.970022 0.055259-151.99474 23.587208-216.413911 69.276806-20.603247 14.576997-25.615401 43.287899-11.20418 64.13981 14.383592 20.852934 42.801828 25.907043 63.362097 11.287067 49.758264-35.276435 107.804285-53.131081 167.337169-52.589752a286.750863 286.750863 0 0 1 25.323759 1.278109c2.567475 0.291642 5.109368 0.680499 7.662517 0.998747 6.845918 0.847298 13.633508 1.832741 20.324907 3.165086 2.958378 0.584308 5.873778 1.346671 8.759501 2.013867 6.567579 1.49812 13.120832 3.109828 19.534916 5.067412 2.02717 0.652869 4.02364 1.388627 6.051833 2.053776 7.317663 2.429329 14.521738 5.040806 21.60404 8.024767 0.720408 0.305969 1.457188 0.681522 2.15099 0.971117 42.398646 18.464537 79.592756 46.88482 108.608603 82.453921 0.182149 0.207731 0.360204 0.48607 0.528026 0.693801 40.844244 50.340525 65.433268 114.688065 65.459874 184.757934h-66.840314c-1.725294 0-3.39533 0.925069-4.270257 2.550079s-0.729617 3.529383 0.220011 4.970199L841.588507 689.936575a4.844332 4.844332 0 0 0 4.052293 2.183735 4.843308 4.843308 0 0 0 4.051269-2.184758l112.281249-170.542165a4.841262 4.841262 0 0 0 0.218988-4.970198 4.847401 4.847401 0 0 0-4.270257-2.550079l-66.785056 0.001023z" p-id="1970" ></path></svg>